<?xml version="1.0" encoding="UTF-8" standalone="no"?>
<svg
   width="293.7041pt"
   height="368.22043pt"
   viewBox="0 0 293.7041 368.22043"
   fill-rule="evenodd"
   version="1.1"
   id="svg837"
   sodipodi:docname="logo devq.svg"
   inkscape:version="1.2.2 (b0a8486, 2022-12-01)"
   xmlns:inkscape="http://www.inkscape.org/namespaces/inkscape"
   xmlns:sodipodi="http://sodipodi.sourceforge.net/DTD/sodipodi-0.dtd"
   xmlns="http://www.w3.org/2000/svg"
   xmlns:svg="http://www.w3.org/2000/svg"
   xmlns:rdf="http://www.w3.org/1999/02/22-rdf-syntax-ns#"
   xmlns:cc="http://creativecommons.org/ns#"
   xmlns:dc="http://purl.org/dc/elements/1.1/">
  <metadata
     id="metadata843">
    <rdf:RDF>
      <cc:Work
         rdf:about="">
        <dc:format>image/svg+xml</dc:format>
        <dc:type
           rdf:resource="http://purl.org/dc/dcmitype/StillImage" />
      </cc:Work>
    </rdf:RDF>
  </metadata>
  <defs
     id="defs841">
    <rect
       x="33.408333"
       y="385.86627"
       width="339.0946"
       height="130.2925"
       id="rect179" />
    <linearGradient
       id="linearGradient861"
       inkscape:swatch="solid">
      <stop
         style="stop-color:#2196f3;stop-opacity:1;"
         offset="0"
         id="stop859" />
    </linearGradient>
    <linearGradient
       id="linearGradient855"
       inkscape:swatch="solid">
      <stop
         style="stop-color:#2196f3;stop-opacity:1;"
         offset="0"
         id="stop853" />
    </linearGradient>
    <linearGradient
       id="linearGradient849"
       inkscape:swatch="solid">
      <stop
         style="stop-color:#2196f3;stop-opacity:1;"
         offset="0"
         id="stop847" />
    </linearGradient>
  </defs>
  <sodipodi:namedview
     pagecolor="#ffffff"
     bordercolor="#666666"
     inkscape:document-rotation="0"
     borderopacity="1"
     objecttolerance="10"
     gridtolerance="10"
     guidetolerance="10"
     inkscape:pageopacity="0"
     inkscape:pageshadow="2"
     inkscape:window-width="1978"
     inkscape:window-height="1249"
     id="namedview839"
     showgrid="false"
     fit-margin-top="0"
     fit-margin-left="0"
     fit-margin-right="0"
     fit-margin-bottom="0"
     inkscape:zoom="0.59865302"
     inkscape:cx="-189.5923"
     inkscape:cy="398.39438"
     inkscape:window-x="560"
     inkscape:window-y="97"
     inkscape:window-maximized="0"
     inkscape:current-layer="g835"
     inkscape:showpageshadow="2"
     inkscape:pagecheckerboard="0"
     inkscape:deskcolor="#d1d1d1"
     inkscape:document-units="pt" />
  <g
     id="g835"
     transform="translate(-3.7930621,-575.389)">
    <path
       style="fill:#0966c2;fill-opacity:1;fill-rule:evenodd;stroke:none"
       d="m 220.249,814.439 31.99,31.95 43.26,-43.2 -36.41,-36.37 c 16.4,-33.34 17.84,-72.03 2.79,-108.62 -21.04,-51.18 -67.92,-82.66 -123.32,-82.81 v 0.82 l -0.36,-0.82 h -23.59 v 133.54 h 51.12 v -65.81 c 17.1,6.97 30.8,20.53 38.31,38.8 11.21,27.25 5.25,56.69 -15.68,77.44 -20.92,20.76 -50.44,26.51 -77.64,15.14 -27.21,-11.37 -43.82,-36.41 -43.69,-65.87 l -62.53,-0.26 c -0.23,55.33 30.97,102.37 82.07,123.73 46.03,19.25 95.57,12.38 133.68,-17.66 z"
       id="path833"
       inkscape:connector-curvature="0" />
    <g
       aria-label="DevQ"
       transform="matrix(1.2242585,0,0,1.1831023,-47.684808,385.43693)"
       id="text177"
       style="font-size:96px;line-height:1.25;font-family:'Museo Sans';-inkscape-font-specification:'Museo Sans';white-space:pre;shape-inside:url(#rect179)">
      <path
         d="m 42.048203,469.86719 h 23.232 c 21.024,0 34.751997,-12.672 34.751997,-34.176 0,-21.504 -13.727997,-33.984 -34.751997,-33.984 h -23.232 z m 12.384,-10.656 v -46.848 h 10.176 c 13.632,0 22.656,8.16 22.656,23.328 0,15.36 -8.832,23.52 -22.656,23.52 z"
         style="font-weight:600;-inkscape-font-specification:'Museo Sans Semi-Bold'"
         id="path424" />
      <path
         d="m 107.61605,445.38719 c 0,13.92 10.08,25.632 26.304,25.632 12.192,0 19.68,-7.008 19.68,-7.008 l -4.704,-8.736 c 0,0 -6.24,5.376 -14.112,5.376 -7.296,0 -13.92,-4.416 -14.688,-12.96 h 33.792 c 0,0 0.288,-3.264 0.288,-4.704 0,-12.96 -7.584,-23.232 -21.696,-23.232 -14.592,0 -24.864,10.56 -24.864,25.632 z m 12.864,-6.048 c 1.152,-6.336 5.472,-10.176 11.712,-10.176 5.376,0 9.504,3.552 9.696,10.176 z"
         style="font-weight:600;-inkscape-font-specification:'Museo Sans Semi-Bold'"
         id="path426" />
      <path
         d="m 175.29595,469.86719 h 14.4 l 17.568,-48.96 h -12.864 l -10.176,30.336 c -0.96,2.88 -1.632,7.392 -1.728,7.392 h -0.192 c -0.096,0 -0.768,-4.512 -1.728,-7.392 l -10.176,-30.336 h -12.864 z"
         style="font-weight:600;-inkscape-font-specification:'Museo Sans Semi-Bold'"
         id="path428" />
      <path
         d="m 212.06386,435.59519 c 0,19.776 15.168,35.424 34.752,35.424 8.256,0 15.648,-2.592 21.504,-7.296 l 7.872,7.872 5.568,-5.952 -8.064,-7.68 c 4.896,-5.952 7.968,-13.824 7.968,-22.368 0,-19.584 -15.168,-34.656 -34.848,-34.656 -19.584,0 -34.752,15.072 -34.752,34.656 z m 9.792,0 c 0,-14.976 10.944,-26.016 24.96,-26.016 14.112,0 25.056,11.04 25.056,26.016 0,5.952 -1.92,11.616 -4.992,15.84 l -7.776,-7.872 -5.568,5.952 7.968,7.776 c -3.936,3.168 -9.6,4.992 -14.688,4.992 -14.016,0 -24.96,-11.52 -24.96,-26.688 z"
         style="fill:#0966c2"
         id="path430" />
    </g>
  </g>
</svg>
