<?xml version="1.0" encoding="UTF-8" standalone="no"?>
<svg
   xmlns:dc="http://purl.org/dc/elements/1.1/"
   xmlns:cc="http://creativecommons.org/ns#"
   xmlns:rdf="http://www.w3.org/1999/02/22-rdf-syntax-ns#"
   xmlns:svg="http://www.w3.org/2000/svg"
   xmlns="http://www.w3.org/2000/svg"
   xmlns:sodipodi="http://sodipodi.sourceforge.net/DTD/sodipodi-0.dtd"
   xmlns:inkscape="http://www.inkscape.org/namespaces/inkscape"
   inkscape:export-ydpi="159.40923"
   inkscape:export-xdpi="159.40923"
   inkscape:export-filename="/Users/andrea/Downloads/logo.png"
   width="291.00128pt"
   height="271pt"
   viewBox="0 0 291.00128 271"
   fill-rule="evenodd"
   version="1.1"
   id="svg837"
   sodipodi:docname="logo.svg"
   inkscape:version="1.0beta2 (2b71d25, 2019-12-03)">
  <metadata
     id="metadata843">
    <rdf:RDF>
      <cc:Work
         rdf:about="">
        <dc:format>image/svg+xml</dc:format>
        <dc:type
           rdf:resource="http://purl.org/dc/dcmitype/StillImage" />
        <dc:title></dc:title>
      </cc:Work>
    </rdf:RDF>
  </metadata>
  <defs
     id="defs841" />
  <sodipodi:namedview
     pagecolor="#ffffff"
     bordercolor="#666666"
     inkscape:document-rotation="0"
     borderopacity="1"
     objecttolerance="10"
     gridtolerance="10"
     guidetolerance="10"
     inkscape:pageopacity="0"
     inkscape:pageshadow="2"
     inkscape:window-width="1978"
     inkscape:window-height="1249"
     id="namedview839"
     showgrid="false"
     fit-margin-top="0"
     fit-margin-left="0"
     fit-margin-right="0"
     fit-margin-bottom="0"
     inkscape:zoom="0.59865302"
     inkscape:cx="154.64193"
     inkscape:cy="399.75293"
     inkscape:window-x="262"
     inkscape:window-y="23"
     inkscape:window-maximized="0"
     inkscape:current-layer="g835" />
  <g
     id="g835"
     transform="translate(0.00126289,-570.89)">
    <path
       inkscape:export-ydpi="83.690033"
       inkscape:export-xdpi="83.690033"
       inkscape:export-filename="/Users/andrea/Downloads/logo.png"
       style="fill:#000000;fill-opacity:1;stroke:none"
       d="m 215.75,809.94 31.99,31.95 43.26,-43.2 -36.41,-36.37 c 16.4,-33.34 17.84,-72.03 2.79,-108.62 -21.04,-51.18 -67.92,-82.66 -123.32,-82.81 v 0.82 l -0.36,-0.82 h -23.59 v 133.54 h 51.12 v -65.81 c 17.1,6.97 30.8,20.53 38.31,38.8 11.21,27.25 5.25,56.69 -15.68,77.44 C 162.94,775.62 133.42,781.37 106.22,770 79.01,758.63 62.4,733.59 62.53,704.13 L 0,703.87 c -0.23,55.33 30.97,102.37 82.07,123.73 46.03,19.25 95.57,12.38 133.68,-17.66 z"
       id="path833"
       inkscape:connector-curvature="0" />
  </g>
</svg>
